<?xml version="1.0" ?><svg id="whale" style="enable-background:new 0 0 300 300;" version="1.1" viewBox="0 0 300 300" xml:space="preserve" xmlns="http://www.w3.org/2000/svg" xmlns:xlink="http://www.w3.org/1999/xlink"><g><path d="   M151.841,148.379c-6.192-6.316-17.26-14.988-34.13-19.25c-28.32-7.156-51.572-48.164-41.19-73.262c0,0,10.696,9.729,42.555,11.293   c31.859,1.563,34.89,33.154,34.89,33.154l3.637,50.075" style="fill-rule:evenodd;clip-rule:evenodd;fill:none;stroke:#000000;stroke-width:7.7333;stroke-linecap:round;stroke-linejoin:round;stroke-miterlimit:10;"/><path d="   M155.705,148.848c6.098-6.348,17.294-15.35,34.585-19.719c28.32-7.156,51.572-48.164,41.19-73.262c0,0-10.696,9.729-42.555,11.293   c-31.859,1.563-34.89,33.154-34.89,33.154l-3.645,50.183" style="fill-rule:evenodd;clip-rule:evenodd;fill:none;stroke:#000000;stroke-width:7.7333;stroke-linecap:round;stroke-linejoin:round;stroke-miterlimit:10;"/><path d="   M26,211.867v-64l19.169,14.376c7.086,5.315,18.223,4.906,24.883-0.922l7.896-6.909c6.656-5.824,17.444-5.828,24.104,0l7.896,6.909   c6.656,5.824,17.444,5.828,24.104,0l7.896-6.909c6.656-5.824,17.444-5.828,24.104,0l7.896,6.909c6.656,5.824,17.444,5.828,24.104,0   l7.896-6.909c6.656-5.824,17.444-5.828,24.104,0l7.896,6.909c6.656,5.824,17.773,6.255,24.883,0.922L282,147.867v64" style="fill-rule:evenodd;clip-rule:evenodd;fill:none;stroke:#000000;stroke-width:8;stroke-linecap:round;stroke-linejoin:round;stroke-miterlimit:10;"/><path d="   M26,187.867l19.169,14.376c7.086,5.315,18.223,4.906,24.883-0.922l7.896-6.909c6.656-5.824,17.444-5.828,24.104,0l7.896,6.909   c6.656,5.824,17.444,5.828,24.104,0l7.896-6.909c6.656-5.824,17.444-5.828,24.104,0l7.896,6.909c6.656,5.824,17.444,5.828,24.104,0   l7.896-6.909c6.656-5.824,17.444-5.828,24.104,0l7.896,6.909c6.656,5.824,17.773,6.255,24.883,0.922L282,187.867v64H26V187.867z" style="fill-rule:evenodd;clip-rule:evenodd;fill:none;stroke:#000000;stroke-width:8;stroke-linecap:round;stroke-linejoin:round;stroke-miterlimit:10;"/></g><g/><g/><g/><g/><g/><g/><g/><g/><g/><g/><g/><g/><g/><g/><g/></svg>